Simulation
nRows=44
nColumns=15
endheader
time  TH_x TH_y TH_z SC_y  SC_z  SC_x  AC_y  AC_z  AC_x  GH_y  GH_z  GH_yy  EL_x  PS_y
1.55  0.000000  0.000000  0.000000  -36.94896856173724  6.150586138988292  11.557399929824049  60.691534328364014  18.54594511515359  -2.833767696300059  21.691140771192455  53.341498526845655  -20.96164672560246  18.324483518210286  0.000000
1.581  0.000000  0.000000  0.000000  -37.04065625855753  6.246955629969889  11.484230956127657  60.71919925729792  18.833774281011415  -2.5876167479184167  21.673358128817704  53.756335217955886  -21.17438867412638  18.27237577247254  0.000000
1.612  0.000000  0.000000  0.000000  -37.11534870669032  6.318758193212162  11.37998933175321  60.73810620513937  19.102172570791033  -2.369465305541516  21.67230548802416  54.091798568920346  -21.379003656261354  18.22522652750354  0.000000
1.643  0.000000  0.000000  0.000000  -37.171090034691254  6.3666069929267355  11.247392474826833  60.74692341475454  19.34845657645902  -2.182127347456559  21.68782083724008  54.348181331017614  -21.57478482032912  18.184197456219586  0.000000
1.674  0.000000  0.000000  0.000000  -37.207803726125  6.390829894749455  11.088335897013032  60.7461155931227  19.570087872102825  -2.026927081694274  21.71941510709061  54.52575600550042  -21.761396854286048  18.148927440900668  0.000000
1.705  0.000000  0.000000  0.000000  -37.22533930702731  6.391166287510374  10.9046466808147  60.736188430552396  19.765137594693247  -1.9053760940223674  21.76689422087798  54.624690138726386  -21.93791647717872  18.11971023840115  0.000000
1.736  0.000000  0.000000  0.000000  -37.224013680669266  6.36726660670481  10.69827376536314  60.71886896159312  19.93160832494463  -1.8182964901046275  21.829172995850872  54.644880324283534  -22.103870047956757  18.09671031854251  0.000000
1.767  0.000000  0.000000  0.000000  -37.20421916640101  6.31902076248386  10.47121419117353  60.69481786168174  20.06752182080805  -1.76653980987935  21.905640083140213  54.58604128815511  -22.259165529024596  18.07969592584001  0.000000
1.798  0.000000  0.000000  0.000000  -37.166394291463064  6.2467513540138455  10.224814279538224  60.66396371085902  20.17139864756307  -1.7502938724222803  21.9952165162316  54.44776410441  -22.403667204653313  18.067981105298994  0.000000
1.829  0.000000  0.000000  0.000000  -37.111502485724394  6.1507236597202475  9.957772259242253  60.62603840897627  20.24450937146713  -1.7676811387543045  22.097080777689293  54.230308037902  -22.536925397403493  18.06140291407513  0.000000
1.8599999999999999  0.000000  0.000000  0.000000  -37.04080436704239  6.031112174655648  9.668818070677004  60.581841578033895  20.28918785341683  -1.8161828828778839  22.210956153700018  53.93460987281838  -22.65861810596266  18.05986358794622  0.000000
1.891  0.000000  0.000000  0.000000  -36.95486334518798  5.88882738627757  9.35873176851232  60.53153186675544  20.30622375817404  -1.8937222836667598  22.336927447648836  53.56147612413666  -22.768396093193047  18.06355019869897  0.000000
1.922  0.000000  0.000000  0.000000  -36.85454607743731  5.725224643607942  9.027812447212161  60.47517313706159  20.29596567678671  -1.9975470609218031  22.474897392685243  53.111544620919986  -22.865937245651224  18.072553609396437  0.000000
1.953  0.000000  0.000000  0.000000  -36.74087926931321  5.541754179678875  8.674533965879718  60.41231533126552  20.259565502054848  -2.123485527152704  22.62526320330031  52.58549663834273  -22.95083628890159  18.08696244918221  0.000000
1.984  0.000000  0.000000  0.000000  -36.61454388576278  5.340579575516912  8.296190902350794  60.34275423555309  20.19945778836514  -2.2660585907262116  22.78848792748728  51.98312010974159  -23.022813437018325  18.107063653598683  0.000000
2.015  0.000000  0.000000  0.000000  -36.47629735509275  5.123969909550155  7.889508820788951  60.26630015779128  20.118710142479188  -2.418694520977425  22.96623987827112  51.304016149053865  -23.081464179021424  18.133252715621897  0.000000
2.046  0.000000  0.000000  0.000000  -36.32687954029681  4.894340573819037  7.4506420093414985  60.18388729238464  20.020532796536866  -2.574119129075961  23.16029946901932  50.547709316907294  -23.126397285834184  18.16627185361981  0.000000
2.077  0.000000  0.000000  0.000000  -36.169017071397725  4.6546763500798285  6.9762909771211525  60.09902445581246  19.90578664974309  -2.722945705281459  23.371544390573305  49.714118803185784  -23.157405765394152  18.206419047861953  0.000000
2.108  0.000000  0.000000  0.000000  -36.00903927438152  4.407575975879838  6.465271739352021  60.02026709053371  19.771857901506582  -2.8550626033365245  23.597111434493755  48.80378858136534  -23.175017671433803  18.253131280668555  0.000000
2.139  0.000000  0.000000  0.000000  -35.85496947906832  4.155335088778789  5.9182751339990185  59.9576862227212  19.614145875166503  -2.9605033672804315  23.830478731236678  47.81767353823266  -23.1799787671991  18.304603386099224  0.000000
2.17  0.000000  0.000000  0.000000  -35.712096153114494  3.8991095573453394  5.339263570529286  59.917943064871444  19.42713212752346  -3.035120498719552  24.064454219313568  46.757951976613896  -23.172960998751407  18.358787285602496  0.000000
2.201  0.000000  0.000000  0.000000  -35.579008096072855  3.6384120626844902  4.73480139336368  59.89688419614872  19.207395699576256  -3.083020981727245  24.295983902771013  45.62755645465929  -23.15387846172958  18.41570704844385  0.000000
2.232  0.000000  0.000000  0.000000  -35.44969565837844  3.3719118244758155  4.111423580827895  59.88250526075366  18.956418130761328  -3.113485624031303  24.5253874110993  44.42961379113103  -23.122042749843803  18.47675725909365  0.000000
2.263  0.000000  0.000000  0.000000  -35.31806820512209  3.0978572911111995  3.475204943080376  59.86088737669738  18.678814667007284  -3.1366019093224287  24.7547350188069  43.16846709332855  -23.076538282369448  18.543188679054058  0.000000
2.294  0.000000  0.000000  0.000000  -35.17950460781171  2.815684478842142  2.8325372983614745  59.820956307021945  18.37857062699243  -3.1609013811841793  24.985567542142867  41.849028765458755  -23.016525881215376  18.615776631051194  0.000000
2.325  0.000000  0.000000  0.000000  -35.031762320413726  2.525255081384454  2.1895577266610617  59.75602378983706  18.05673308461987  -3.1921636484684033  25.218205872195142  40.47739281319729  -22.941363555136533  18.694673155112405  0.000000
2.356  0.000000  0.000000  0.000000  -34.87314494235597  2.2276314284451453  1.5509274553152808  59.66338295328747  17.713982071415234  -3.232442215396089  25.451505003044364  39.05803169662545  -22.851320597991453  18.77923267523232  0.000000
2.387  0.000000  0.000000  0.000000  -34.70378805324483  1.9256851993047308  0.9210285257965886  59.54385950216463  17.349170221577573  -3.280766158644755  25.684619327898307  37.59466379000369  -22.746358993339538  18.86845216312806  0.000000
2.418  0.000000  0.000000  0.000000  -34.52646584113324  1.621649171891639  0.3052968373741809  59.40078597824845  16.959442408260994  -3.3353797994806396  25.91804602461732  36.091167088590275  -22.625515772558806  18.96239284038283  0.000000
2.449  0.000000  0.000000  0.000000  -34.342422154487615  1.318013348567312  -0.29106747082633466  59.23853358763  16.54213417173345  -3.3950724399019374  26.152217374983245  34.55113089575091  -22.48852658573014  19.060502708578493  0.000000
2.48  0.000000  0.000000  0.000000  -34.1521969214954  1.0161133047968454  -0.8620538327229209  59.06149784468746  16.09625261960152  -3.4592260545624787  26.387316996498363  32.97672713535853  -22.335484223348328  19.16260912017288  0.000000
2.511  0.000000  0.000000  0.000000  -33.95694557335642  0.7167760034878861  -1.4023271687529633  58.87437384399214  15.621627858759659  -3.5284840653341742  26.623784467160586  31.371428840189033  -22.16688079373274  19.26760668651275  0.000000
2.542  0.000000  0.000000  0.000000  -33.75753414237468  0.4206535195795866  -1.9057815781653427  58.67958614269238  15.120008989619157  -3.6049049234881414  26.861973232666227  29.736654346185315  -21.982051376403838  19.375573795913464  0.000000
2.573  0.000000  0.000000  0.000000  -33.554043078684316  0.12834161960463691  -2.375547370451465  58.48018319201637  14.601146226766652  -3.6865897734265407  27.101490567816963  28.07513428912428  -21.781211918296894  19.48537799205483  0.000000
2.604  0.000000  0.000000  0.000000  -33.34607691729111  -0.15668285093337314  -2.817420654168954  58.27828266128655  14.07541587924578  -3.7651748129561566  27.34364991234922  26.390789639481255  -21.564380376462392  19.5977302168139  0.000000
2.635  0.000000  0.000000  0.000000  -33.131838918903995  -0.42976973101101673  -3.226980700518881  58.07778880126311  13.541218509916312  -3.8399483220835435  27.589511636535267  24.691837600605652  -21.332150072122133  19.711972516147824  0.000000
2.666  0.000000  0.000000  0.000000  -32.91113660567364  -0.6870979112959412  -3.5969074694326078  57.8761319962106  12.996924110397737  -3.9125777587051753  27.83690078079629  22.983524137263405  -21.085003167748763  19.83155232269175  0.000000
2.697  0.000000  0.000000  0.000000  -32.68366777234458  -0.9250160468655044  -3.921951333936194  57.674975357313706  12.44228589282449  -3.987421901910749  28.084966654009776  21.273096455307062  -20.822349780043634  19.954110518543764  0.000000
2.7279999999999998  0.000000  0.000000  0.000000  -32.44830540388728  -1.1431874414251144  -4.191662917709138  57.47256111049449  11.87339524060415  -4.070163753257982  28.3340397194518  19.56442107718411  -20.54481785894639  20.08088905625266  0.000000
2.759  0.000000  0.000000  0.000000  -32.20813671388911  -1.342520442610512  -4.403528975823953  57.27604632592599  11.292658179525034  -4.165502755697157  28.586158750079623  17.863283356579274  -20.251757436353913  20.209155666477677  0.000000
2.79  0.000000  0.000000  0.000000  -31.96470466641768  -1.5209018263511875  -4.5577322253176265  57.082235338076096  10.705804452488712  -4.271000595613336  28.838838825215795  16.168883054065727  -19.945267671772303  20.341480271353024  0.000000
2.821  0.000000  0.000000  0.000000  -31.72205789645701  -1.6784582775037529  -4.659294029359553  56.89627262437708  10.123415325884686  -4.3881578520015525  29.0925258828991  14.484203975926535  -19.621709529075535  20.474251018921915  0.000000
2.852  0.000000  0.000000  0.000000  -31.479085270356677  -1.8130605270343807  -4.711590431925541  56.712216298067695  9.552589189062598  -4.513722158555401  29.339720369180927  12.80886738319384  -19.286848234385392  20.60895175196827  0.000000
2.883  0.000000  0.000000  0.000000  -31.244115114811116  -1.9245995518821613  -4.7182435327087875  56.537572551174485  9.01034403851998  -4.644596453743281  29.585042422868288  11.14798873840204  -18.933804221254142  20.74549025573085  0.000000
